REM MD5 c6f31adf43c9216845cbc1d45c02e4be
FILE "Magical World of Disney on PlayStation, The (Europe).bin" BINARY
  TRACK 01 MODE2/2352
    INDEX 01 00:00:00
  TRACK 02 AUDIO
    INDEX 00 45:01:33
    INDEX 01 45:03:33
  TRACK 03 AUDIO
    INDEX 00 46:08:31
    INDEX 01 46:10:31
REM LEADOUT 49:11:63
